<svg width="22" height="24" viewBox="0 0 22 24" fill="none" xmlns="http://www.w3.org/2000/svg">
<path d="M11 0C12.285 0 20.75 4.886 21.392 6C22.037 7.115 22.037 16.885 21.392 18C20.747 19.115 12.287 24 11 24C9.71302 24 1.25002 19.115 0.605018 18C-0.0359824 16.885 -0.0359824 7.115 0.605018 6C1.25002 4.886 9.71502 0 11 0ZM13.295 6.799C13.154 6.799 13.037 6.914 13.037 7.057V10.932H8.96302V6.908H9.66402C9.80502 6.908 9.91802 6.793 9.91802 6.65C9.91802 6.556 9.86902 6.474 9.79502 6.429L8.22302 4.92C8.17402 4.857 8.08202 4.811 7.99702 4.811C7.91302 4.811 7.83702 4.856 7.79002 4.918L6.11002 6.43C6.03802 6.475 5.99002 6.556 5.99002 6.648C5.99002 6.791 6.10302 6.906 6.24502 6.906H6.94902L6.95702 16.941C6.95702 17.086 7.06802 17.199 7.21102 17.199H8.70302C8.84502 17.199 8.96202 17.084 8.96202 16.943V12.939H13.035V17.091H12.336C12.193 17.091 12.08 17.206 12.08 17.349C12.08 17.441 12.128 17.523 12.199 17.568L13.778 19.078C13.822 19.139 13.919 19.187 14.003 19.187C14.088 19.187 14.162 19.142 14.211 19.078L15.89 17.568C15.962 17.523 16.01 17.441 16.01 17.349C16.01 17.206 15.895 17.091 15.755 17.091H15.051L15.044 7.057C15.044 6.912 14.93 6.797 14.789 6.797H13.295V6.799V6.799Z" fill="white"/>
</svg>
